<?xml version="1.0" encoding="utf-8"?>
<!-- Generator: Adobe Illustrator 24.2.1, SVG Export Plug-In . SVG Version: 6.00 Build 0)  -->
<svg version="1.1" id="Capa_1" xmlns="http://www.w3.org/2000/svg" xmlns:xlink="http://www.w3.org/1999/xlink" x="0px" y="0px"
	 viewBox="0 0 50 50" style="enable-background:new 0 0 50 50;" xml:space="preserve">
<style type="text/css">
	.st0{fill:#31ACAE;}
</style>
<g>
	<g>
		<g>
			<path class="st0" d="M44.57,0H20.65c-3,0-5.43,2.44-5.43,5.43v13.04c0,0.6,0.49,1.09,1.09,1.09c0.6,0,1.09-0.49,1.09-1.09V5.43
				c0-1.8,1.46-3.26,3.26-3.26h23.91c1.8,0,3.26,1.46,3.26,3.26v39.13c0,1.8-1.46,3.26-3.26,3.26H20.65c-1.8,0-3.26-1.46-3.26-3.26
				V31.52c0-0.6-0.49-1.09-1.09-1.09s-1.09,0.49-1.09,1.09v13.04c0,3,2.44,5.43,5.43,5.43h23.91c3,0,5.43-2.44,5.43-5.43V5.43
				C50,2.44,47.56,0,44.57,0z"/>
		</g>
	</g>
	<g>
		<g>
			<path class="st0" d="M35.87,23.91H1.09C0.49,23.91,0,24.4,0,25c0,0.6,0.49,1.09,1.09,1.09h34.78c0.6,0,1.09-0.49,1.09-1.09
				S36.47,23.91,35.87,23.91z"/>
		</g>
	</g>
	<g>
		<g>
			<path class="st0" d="M36.64,24.23l-6.52-6.52c-0.42-0.42-1.11-0.42-1.54,0s-0.42,1.11,0,1.54L34.33,25l-5.75,5.75
				c-0.42,0.42-0.42,1.11,0,1.54c0.21,0.21,0.49,0.32,0.77,0.32c0.28,0,0.56-0.11,0.77-0.32l6.52-6.52
				C37.06,25.35,37.06,24.66,36.64,24.23z"/>
		</g>
	</g>
</g>
</svg>
