<?xml version="1.0" encoding="utf-8"?>
<!-- Generator: Adobe Illustrator 24.2.1, SVG Export Plug-In . SVG Version: 6.00 Build 0)  -->
<svg version="1.1" id="Layer_1" xmlns="http://www.w3.org/2000/svg" xmlns:xlink="http://www.w3.org/1999/xlink" x="0px" y="0px"
	 viewBox="0 0 50 16.63" style="enable-background:new 0 0 50 16.63;" xml:space="preserve">
<style type="text/css">
	.st0{fill:#EC3E7C;}
	.st1{opacity:0.12;}
	.st2{fill:#010101;}
	.st3{fill:#FFFFFF;}
	.st4{fill:#31ADAF;}
</style>
<g>
	<g>
		<g>
			<g>
				<path class="st0" d="M13.52,0.04C11.89-0.1,9.83,0.76,9.34,2.15C8.86,0.76,6.36-0.11,4.73,0.01c-4.3,0.33-5.78,5.12-3.97,8.35
					C1.73,10.1,3.13,11.63,4.66,13c1.28,1.15,4.59,3.58,4.6,3.58c0.01,0.01,3.34-2.4,4.64-3.53c1.55-1.36,2.96-2.87,3.95-4.6
					C19.7,5.23,17.82,0.41,13.52,0.04z"/>
			</g>
		</g>
		<g class="st1">
			<g>
				<path class="st2" d="M17.02,8.85c-1.08,1.29-2.32,2.5-3.68,3.54c-1.31,1-2.84,1.87-4.52,2.16c-0.81,0.14-1.6,0.11-2.35-0.06
					c1.37,1.07,2.85,2.15,2.86,2.15c0.01,0.01,3.34-2.4,4.64-3.53c1.55-1.36,2.96-2.87,3.95-4.6c0.32-0.56,0.53-1.17,0.63-1.79
					C18.11,7.46,17.59,8.17,17.02,8.85z"/>
			</g>
		</g>
		<g>
			<g>
				<path class="st3" d="M16.96,7.49c-1.13,0.02-2.25,0.05-3.38,0.07c-0.4-1.48-0.8-2.96-1.2-4.44c-0.06-0.21-0.38-0.2-0.44,0
					c-0.88,2.57-1.77,5.14-2.65,7.71c-0.05,0.15-0.1,0.3-0.15,0.45c-0.58-1.7-1.17-3.39-1.75-5.09C7.28,5.9,7.19,5.63,7.09,5.36
					C7.03,5.2,6.76,5.13,6.67,5.31C6.24,6.13,5.8,6.95,5.37,7.77C4.11,7.76,2.85,7.76,1.59,7.75c-0.3,0-0.3,0.43,0,0.43
					C2.89,8.19,4.2,8.2,5.51,8.2c0.08,0,0.16-0.04,0.2-0.11c0.37-0.7,0.75-1.41,1.12-2.11c0.6,1.74,1.2,3.48,1.8,5.22
					c0.09,0.27,0.19,0.54,0.28,0.82c0.07,0.2,0.37,0.21,0.44,0c0.88-2.57,1.77-5.14,2.65-7.71c0.04-0.12,0.08-0.25,0.13-0.37
					c0.35,1.29,0.7,2.59,1.05,3.88c0.02,0.09,0.12,0.16,0.22,0.16c1.19-0.02,2.37-0.05,3.56-0.07C17.25,7.91,17.25,7.48,16.96,7.49z
					"/>
			</g>
		</g>
	</g>
	<g>
		<g>
			<path class="st0" d="M19.79,0.78c0.7,0.02,1.14,0.03,1.33,0.03c0.26,0,0.55-0.01,0.87-0.02c0.34-0.01,0.55-0.02,0.63-0.02
				c0.39,0,0.71,0.04,0.96,0.12c0.25,0.08,0.46,0.23,0.63,0.44c0.17,0.21,0.25,0.47,0.25,0.77c0,0.25-0.06,0.49-0.17,0.72
				c-0.12,0.23-0.28,0.43-0.48,0.59c-0.21,0.16-0.42,0.28-0.63,0.35c-0.21,0.07-0.43,0.11-0.66,0.11c-0.17,0-0.36-0.02-0.57-0.06
				l-0.07-0.25l0.04-0.04c0.21,0.05,0.38,0.07,0.51,0.07c0.36,0,0.65-0.12,0.87-0.36C23.5,3,23.61,2.69,23.61,2.32
				c0-0.38-0.11-0.68-0.34-0.9c-0.23-0.22-0.57-0.34-1.03-0.34c-0.25,0-0.53,0.05-0.83,0.14c-0.02,0.21-0.04,0.73-0.04,1.54v1.92
				l0,0.81c0,0.31,0.01,0.51,0.02,0.6c0.01,0.09,0.03,0.15,0.06,0.18c0.03,0.03,0.08,0.06,0.15,0.08c0.07,0.02,0.26,0.04,0.55,0.05
				l0.03,0.02v0.21l-0.03,0.03c-0.7-0.02-1.1-0.03-1.19-0.03c-0.09,0-0.49,0.01-1.18,0.03l-0.03-0.03V6.43l0.03-0.02
				c0.26-0.01,0.43-0.02,0.51-0.04c0.09-0.02,0.14-0.04,0.17-0.06c0.03-0.03,0.05-0.08,0.07-0.17c0.02-0.09,0.03-0.28,0.03-0.57
				l0-0.87V2.77l-0.01-0.81c0-0.31-0.01-0.52-0.02-0.61c-0.01-0.09-0.03-0.15-0.06-0.18c-0.03-0.03-0.08-0.06-0.15-0.07
				c-0.07-0.02-0.26-0.03-0.55-0.05l-0.03-0.03V0.81L19.79,0.78z"/>
			<path class="st0" d="M24.95,4.74c0-0.33,0.07-0.65,0.2-0.95c0.14-0.31,0.37-0.57,0.71-0.79c0.34-0.22,0.73-0.33,1.2-0.33
				c0.58,0,1.05,0.18,1.42,0.55c0.36,0.37,0.55,0.84,0.55,1.41c0,0.63-0.21,1.15-0.63,1.56c-0.42,0.41-0.92,0.61-1.51,0.61
				c-0.39,0-0.73-0.1-1.04-0.31s-0.53-0.46-0.67-0.76C25.02,5.42,24.95,5.09,24.95,4.74z M25.73,4.45c0,0.39,0.05,0.73,0.15,1.04
				c0.1,0.31,0.26,0.55,0.47,0.74c0.22,0.19,0.46,0.28,0.74,0.28c0.33,0,0.6-0.13,0.81-0.39c0.21-0.26,0.32-0.65,0.32-1.17
				c0-0.59-0.12-1.07-0.35-1.45c-0.23-0.38-0.56-0.56-1-0.56c-0.36,0-0.64,0.13-0.84,0.39C25.83,3.59,25.73,3.96,25.73,4.45z"/>
			<path class="st0" d="M30.89,2.69l0.08,0.05c-0.02,0.16-0.03,0.44-0.04,0.85l0.31-0.39c0.1-0.13,0.19-0.23,0.27-0.3
				c0.08-0.07,0.17-0.12,0.28-0.16C31.9,2.7,32,2.68,32.11,2.68c0.12,0,0.24,0.02,0.34,0.07l0.03,0.06
				c-0.04,0.37-0.07,0.69-0.07,0.97h-0.19c-0.11-0.25-0.29-0.38-0.53-0.38c-0.17,0-0.32,0.05-0.45,0.16
				c-0.13,0.11-0.21,0.25-0.25,0.41c-0.04,0.16-0.06,0.37-0.06,0.62v0.46c0,0.08,0.01,0.29,0.02,0.61c0.01,0.32,0.02,0.51,0.04,0.56
				c0.01,0.05,0.03,0.09,0.06,0.11c0.03,0.02,0.06,0.04,0.1,0.05c0.04,0.01,0.24,0.02,0.59,0.04l0.04,0.03v0.17l-0.04,0.04
				c-0.37-0.02-0.75-0.03-1.15-0.03c-0.32,0-0.65,0.01-0.99,0.03l-0.04-0.04V6.46l0.04-0.03C29.85,6.41,30,6.4,30.04,6.39
				c0.03-0.01,0.06-0.03,0.09-0.05c0.03-0.03,0.04-0.07,0.05-0.12c0.01-0.05,0.02-0.23,0.03-0.53c0.01-0.3,0.02-0.53,0.02-0.69V4.18
				c0-0.11-0.01-0.26-0.02-0.45c-0.01-0.19-0.02-0.31-0.03-0.35s-0.03-0.08-0.06-0.1c-0.04-0.02-0.11-0.03-0.22-0.03l-0.35,0
				l-0.04-0.03V3.03L29.56,3C30.09,2.93,30.53,2.83,30.89,2.69z"/>
			<path class="st0" d="M32.84,3.38V3.28l0.03-0.04c0.26-0.1,0.47-0.19,0.63-0.27c0-0.72-0.01-1.14-0.02-1.26
				c0.28-0.1,0.52-0.21,0.7-0.32l0.1,0.08c-0.03,0.17-0.06,0.68-0.1,1.52c0.14,0,0.29,0,0.45,0c0.33,0,0.56-0.01,0.7-0.02l0.03,0.03
				l-0.08,0.35l-0.03,0.04c-0.14,0-0.3,0-0.47,0c-0.15,0-0.35,0-0.6,0l-0.02,1.69c0,0.39,0.01,0.64,0.03,0.76
				c0.02,0.12,0.07,0.21,0.15,0.28c0.08,0.07,0.2,0.1,0.36,0.1c0.18,0,0.36-0.05,0.51-0.15l0.1,0.15c-0.07,0.05-0.23,0.19-0.48,0.41
				c-0.14,0.07-0.29,0.1-0.44,0.1c-0.62,0-0.93-0.3-0.93-0.9c0-0.22,0.01-0.41,0.02-0.56c0-0.05,0-0.1,0-0.15V3.4h-0.17
				c-0.12,0-0.27,0.01-0.43,0.02L32.84,3.38z"/>
			<path class="st0" d="M36.3,3.83l-0.16-0.04L36.1,3.74V3.23c0.49-0.36,0.97-0.55,1.43-0.55c0.32,0,0.58,0.06,0.79,0.18
				c0.21,0.12,0.36,0.27,0.46,0.45c0.09,0.18,0.14,0.39,0.14,0.62L38.9,4.76V6c0,0.17,0.01,0.27,0.04,0.31
				c0.02,0.04,0.05,0.06,0.08,0.07c0.03,0.01,0.09,0.02,0.17,0.03l0.24,0.02l0.03,0.04v0.17l-0.03,0.03
				c-0.2-0.02-0.39-0.02-0.56-0.02c-0.17,0-0.36,0.01-0.6,0.02L38.2,6.61l0.02-0.67l-0.9,0.7c-0.15,0.06-0.32,0.1-0.5,0.1
				c-0.22,0-0.41-0.04-0.57-0.12c-0.16-0.08-0.28-0.19-0.36-0.34c-0.08-0.14-0.13-0.32-0.13-0.52c0-0.41,0.13-0.72,0.38-0.95
				c0.25-0.23,0.95-0.42,2.08-0.58c0-0.41-0.09-0.7-0.27-0.86c-0.18-0.17-0.43-0.25-0.73-0.25c-0.16,0-0.31,0.02-0.44,0.07
				c-0.13,0.05-0.21,0.08-0.23,0.11s-0.09,0.2-0.22,0.51L36.3,3.83z M38.22,4.48c-0.77,0.13-1.26,0.27-1.45,0.42
				c-0.19,0.15-0.29,0.38-0.29,0.69c0,0.43,0.21,0.65,0.64,0.65c0.37,0,0.73-0.21,1.09-0.64V4.48z"/>
			<path class="st0" d="M41.21,0.5l0.08,0.05c-0.03,0.32-0.05,0.95-0.05,1.91v2.6c0,0.06,0.01,0.26,0.02,0.59
				c0.01,0.33,0.02,0.52,0.04,0.58c0.01,0.06,0.03,0.1,0.06,0.12c0.02,0.02,0.06,0.04,0.09,0.05c0.04,0.01,0.19,0.02,0.45,0.04
				l0.04,0.03v0.17L41.9,6.67c-0.35-0.02-0.68-0.03-1-0.03c-0.32,0-0.65,0.01-0.99,0.03l-0.04-0.04V6.46l0.04-0.03
				c0.27-0.02,0.42-0.03,0.45-0.04c0.03-0.01,0.06-0.03,0.09-0.05c0.03-0.03,0.04-0.07,0.05-0.12c0.01-0.05,0.02-0.23,0.03-0.53
				c0.01-0.3,0.02-0.53,0.02-0.69V2.85l-0.02-0.88c-0.01-0.31-0.02-0.52-0.03-0.64c-0.01-0.12-0.02-0.19-0.04-0.21
				c-0.02-0.02-0.05-0.04-0.09-0.05c-0.04-0.01-0.21-0.02-0.5-0.02l-0.04-0.04V0.84l0.03-0.04C40.41,0.75,40.85,0.64,41.21,0.5z"/>
		</g>
	</g>
	<g>
		<g>
			<path class="st4" d="M19.84,14.01l0.04-0.04h0.27l0.04,0.04c0.02,0.47,0.04,0.77,0.08,0.87c0.03,0.11,0.13,0.22,0.3,0.33
				c0.17,0.12,0.39,0.21,0.67,0.29c0.28,0.07,0.56,0.11,0.85,0.11c0.39,0,0.75-0.07,1.06-0.22s0.56-0.36,0.73-0.64
				c0.17-0.28,0.26-0.59,0.26-0.94c0-0.24-0.04-0.46-0.13-0.64c-0.08-0.18-0.2-0.33-0.35-0.44c-0.15-0.11-0.32-0.19-0.51-0.24
				s-0.48-0.11-0.86-0.18c-0.37-0.06-0.66-0.11-0.87-0.16c-0.21-0.05-0.42-0.12-0.63-0.22c-0.21-0.1-0.38-0.23-0.52-0.38
				c-0.14-0.15-0.25-0.34-0.33-0.57c-0.08-0.22-0.13-0.46-0.13-0.72c0-0.69,0.24-1.26,0.72-1.71c0.48-0.44,1.13-0.67,1.94-0.67
				c0.32,0,0.67,0.04,1.05,0.12c0.38,0.08,0.73,0.2,1.04,0.35l0.04,0.07c-0.08,0.34-0.13,0.83-0.15,1.46l-0.05,0.04h-0.29L24.09,9.9
				c-0.01-0.45-0.02-0.73-0.03-0.84c-0.01-0.11-0.18-0.26-0.51-0.43c-0.32-0.17-0.67-0.26-1.05-0.26c-0.32,0-0.61,0.06-0.88,0.19
				c-0.27,0.13-0.48,0.32-0.62,0.6c-0.14,0.27-0.21,0.55-0.21,0.83c0,0.22,0.04,0.41,0.13,0.58c0.09,0.17,0.2,0.3,0.33,0.4
				c0.14,0.1,0.29,0.17,0.47,0.22c0.18,0.05,0.51,0.11,0.99,0.18c0.66,0.09,1.13,0.21,1.43,0.34s0.54,0.34,0.72,0.63
				c0.18,0.29,0.27,0.63,0.27,1.04c0,0.79-0.32,1.45-0.97,1.98c-0.64,0.53-1.42,0.79-2.34,0.79c-0.77,0-1.44-0.14-2.02-0.41
				l-0.03-0.07C19.79,15.42,19.82,14.87,19.84,14.01z"/>
			<path class="st4" d="M26.56,12.16l-0.22-0.06l-0.04-0.06v-0.69c0.66-0.49,1.3-0.73,1.93-0.73c0.43,0,0.78,0.08,1.06,0.24
				c0.28,0.16,0.49,0.36,0.61,0.6c0.13,0.24,0.19,0.52,0.19,0.84l-0.03,1.12v1.66c0,0.23,0.02,0.36,0.05,0.41
				c0.03,0.05,0.07,0.08,0.11,0.1c0.04,0.02,0.12,0.03,0.23,0.04l0.32,0.03l0.04,0.05v0.22l-0.04,0.04
				c-0.27-0.02-0.52-0.03-0.76-0.03c-0.22,0-0.49,0.01-0.8,0.03l-0.08-0.08l0.02-0.9l-1.21,0.95c-0.2,0.09-0.43,0.13-0.67,0.13
				c-0.3,0-0.55-0.05-0.77-0.16c-0.21-0.11-0.38-0.26-0.49-0.45c-0.11-0.19-0.17-0.43-0.17-0.7c0-0.55,0.17-0.97,0.51-1.28
				c0.34-0.31,1.27-0.57,2.79-0.78c0-0.55-0.12-0.94-0.37-1.16s-0.57-0.34-0.99-0.34c-0.22,0-0.41,0.03-0.59,0.09
				c-0.18,0.06-0.28,0.11-0.3,0.15c-0.03,0.04-0.13,0.27-0.3,0.68L26.56,12.16z M29.15,13.03c-1.04,0.17-1.69,0.36-1.94,0.56
				c-0.26,0.2-0.38,0.51-0.38,0.93c0,0.58,0.29,0.87,0.86,0.87c0.49,0,0.98-0.29,1.46-0.86V13.03z"/>
			<path class="st4" d="M33.01,10.62l0.11,0.07c-0.04,0.49-0.06,1.1-0.06,1.85v1.3c0,0.47,0.04,0.81,0.11,0.99
				c0.07,0.19,0.2,0.33,0.38,0.43c0.18,0.1,0.39,0.15,0.63,0.15c0.27,0,0.52-0.05,0.74-0.16c0.22-0.11,0.41-0.26,0.56-0.45
				c0.15-0.19,0.24-0.32,0.26-0.39c0.02-0.07,0.04-0.25,0.04-0.56l0.02-0.62v-0.6c0-0.15-0.01-0.35-0.02-0.61s-0.03-0.41-0.04-0.47
				c-0.01-0.06-0.04-0.1-0.09-0.13c-0.05-0.03-0.14-0.04-0.29-0.04l-0.47-0.01l-0.05-0.04v-0.24l0.04-0.04
				c0.71-0.09,1.31-0.22,1.79-0.42l0.11,0.07c-0.04,0.49-0.06,1.1-0.06,1.85v0.98c0,0.06,0.01,0.51,0.03,1.36
				c0.01,0.32,0.03,0.51,0.06,0.58c0.03,0.07,0.08,0.12,0.13,0.14c0.06,0.03,0.22,0.04,0.5,0.04h0.16l0.05,0.04v0.22l-0.04,0.05
				c-0.52-0.03-0.87-0.04-1.05-0.04c-0.23,0-0.49,0.01-0.78,0.04l-0.05-0.04c0.02-0.38,0.04-0.7,0.05-0.96
				c-0.23,0.18-0.5,0.42-0.8,0.73c-0.11,0.12-0.28,0.21-0.5,0.29c-0.22,0.08-0.46,0.12-0.73,0.12c-0.42,0-0.74-0.07-0.97-0.2
				c-0.23-0.13-0.4-0.31-0.49-0.55c-0.1-0.23-0.14-0.63-0.14-1.2l0.01-0.44v-1.09c0-0.15-0.01-0.35-0.02-0.61
				c-0.01-0.26-0.03-0.41-0.04-0.47c-0.01-0.06-0.04-0.1-0.09-0.13c-0.05-0.03-0.14-0.04-0.29-0.04l-0.47-0.01l-0.05-0.04v-0.24
				l0.04-0.04C31.92,10.96,32.52,10.82,33.01,10.62z M35.76,7.76l-1.64,2.08l-0.07,0.02l-0.16-0.08l-0.02-0.07l0.85-1.94l0.87-0.16
				l0.07,0.02L35.76,7.76z"/>
			<path class="st4" d="M41.7,8.38V8.15l0.04-0.05c0.71-0.08,1.31-0.22,1.79-0.41l0.11,0.07c-0.04,0.43-0.06,1.28-0.06,2.57v3.65
				c0,0.37,0.01,0.7,0.02,0.98c0.01,0.28,0.04,0.45,0.07,0.5c0.03,0.05,0.09,0.09,0.16,0.13c0.08,0.03,0.29,0.06,0.65,0.09
				l0.05,0.04v0.21l-0.05,0.05c-0.4-0.03-0.71-0.04-0.94-0.04c-0.2,0-0.49,0.01-0.86,0.04l-0.06-0.06c0.01-0.36,0.02-0.62,0.02-0.76
				c0-0.02,0-0.09,0.01-0.21c-0.2,0.15-0.41,0.31-0.61,0.5c-0.3,0.27-0.5,0.43-0.59,0.5c-0.17,0.09-0.41,0.13-0.73,0.13
				c-0.51,0-0.95-0.13-1.31-0.38c-0.36-0.25-0.61-0.57-0.77-0.97c-0.15-0.39-0.23-0.79-0.23-1.2c0-0.42,0.08-0.82,0.24-1.21
				c0.16-0.39,0.38-0.67,0.67-0.85c0.29-0.18,0.61-0.36,0.95-0.55c0.34-0.19,0.68-0.29,1.02-0.29c0.47,0,0.92,0.12,1.35,0.35
				l-0.02-1.24c-0.01-0.43-0.02-0.73-0.03-0.9c-0.01-0.17-0.03-0.27-0.06-0.3c-0.02-0.03-0.06-0.05-0.11-0.07
				c-0.05-0.01-0.28-0.02-0.68-0.02L41.7,8.38z M42.65,11.92c-0.23-0.26-0.49-0.46-0.77-0.6c-0.28-0.14-0.56-0.21-0.84-0.21
				c-0.31,0-0.6,0.08-0.87,0.25c-0.27,0.17-0.46,0.42-0.58,0.75c-0.12,0.33-0.18,0.69-0.18,1.08c0,0.65,0.16,1.17,0.49,1.56
				c0.33,0.39,0.74,0.59,1.24,0.59c0.27,0,0.51-0.06,0.72-0.19c0.21-0.12,0.38-0.29,0.52-0.5c0.14-0.21,0.21-0.42,0.24-0.63
				c0.02-0.21,0.03-0.6,0.03-1.16V11.92z"/>
			<path class="st4" d="M49.84,15.11l-0.18,0.4c-0.39,0.25-0.73,0.41-1.03,0.48c-0.3,0.07-0.57,0.11-0.81,0.11
				c-0.45,0-0.87-0.09-1.27-0.26c-0.4-0.17-0.72-0.47-0.97-0.88c-0.25-0.42-0.38-0.92-0.38-1.5c0-0.39,0.05-0.74,0.14-1.05
				c0.1-0.31,0.2-0.55,0.3-0.7c0.11-0.15,0.28-0.32,0.54-0.51c0.25-0.19,0.52-0.33,0.8-0.45c0.28-0.11,0.59-0.17,0.91-0.17
				c0.45,0,0.84,0.1,1.18,0.31c0.34,0.21,0.58,0.48,0.72,0.8c0.14,0.33,0.21,0.67,0.21,1.04c0,0.11-0.01,0.23-0.02,0.33l-0.06,0.06
				c-0.25,0.06-0.59,0.09-1.02,0.11c-0.43,0.02-0.71,0.03-0.85,0.03h-1.79c0.01,0.77,0.2,1.33,0.58,1.7
				c0.38,0.36,0.84,0.55,1.39,0.55c0.26,0,0.51-0.04,0.75-0.13c0.24-0.09,0.49-0.21,0.76-0.37L49.84,15.11z M46.27,12.83
				c0.07,0.01,0.32,0.02,0.77,0.04c0.45,0.01,0.78,0.02,0.99,0.02c0.52,0,0.83-0.01,0.94-0.03c0-0.09,0.01-0.16,0.01-0.21
				c0-0.58-0.12-1-0.35-1.28s-0.55-0.42-0.96-0.42c-0.44,0-0.79,0.16-1.03,0.47C46.39,11.75,46.27,12.21,46.27,12.83z"/>
		</g>
	</g>
</g>
</svg>
